{
	"asset":{
		"generator":"Khronos glTF Blender I/O v4.5.49",
		"version":"2.0"
	},
	"scene":0,
	"scenes":[
		{
			"name":"Scene",
			"nodes":[
				0
			]
		}
	],
	"nodes":[
		{
			"mesh":0,
			"name":"bunny",
			"rotation":[
				0,
				-0.4617486894130707,
				0,
				0.887010931968689
			],
			"scale":[
				0.6295028924942017,
				0.609893798828125,
				0.6295028924942017
			]
		}
	],
	"materials":[
		{
			"doubleSided":true,
			"name":"texture.001",
			"pbrMetallicRoughness":{
				"baseColorTexture":{
					"index":0
				},
				"metallicFactor":0,
				"roughnessFactor":0.5
			}
		}
	],
	"meshes":[
		{
			"name":"Cylinder",
			"primitives":[
				{
					"attributes":{
						"POSITION":0,
						"NORMAL":1,
						"TEXCOORD_0":2
					},
					"indices":3,
					"material":0
				}
			]
		}
	],
	"textures":[
		{
			"sampler":0,
			"source":0
		}
	],
	"images":[
		{
			"mimeType":"image/png",
			"name":"sora_bunny_texture_2",
			"uri":"textures/sora_bunny_texture_2.png"
		}
	],
	"accessors":[
		{
			"bufferView":0,
			"componentType":5126,
			"count":913,
			"max":[
				2.098855972290039,
				3.0158329010009766,
				2.831287145614624
			],
			"min":[
				-1.109519362449646,
				-1.744855523109436,
				-1.4955410957336426
			],
			"type":"VEC3"
		},
		{
			"bufferView":1,
			"componentType":5126,
			"count":913,
			"type":"VEC3"
		},
		{
			"bufferView":2,
			"componentType":5126,
			"count":913,
			"type":"VEC2"
		},
		{
			"bufferView":3,
			"componentType":5123,
			"count":4002,
			"type":"SCALAR"
		}
	],
	"bufferViews":[
		{
			"buffer":0,
			"byteLength":10956,
			"byteOffset":0,
			"target":34962
		},
		{
			"buffer":0,
			"byteLength":10956,
			"byteOffset":10956,
			"target":34962
		},
		{
			"buffer":0,
			"byteLength":7304,
			"byteOffset":21912,
			"target":34962
		},
		{
			"buffer":0,
			"byteLength":8004,
			"byteOffset":29216,
			"target":34963
		}
	],
	"samplers":[
		{
			"magFilter":9729,
			"minFilter":9987
		}
	],
	"buffers":[
		{
			"byteLength":37220,
			"uri":"scene.bin"
		}
	]
}
