<svg width="32" height="32" viewBox="0 0 32 32" fill="none" xmlns="http://www.w3.org/2000/svg">
<path d="M11.6123 22.091C11.5599 21.9814 11.2097 21.4617 10.5341 20.3547C10.2226 19.8442 9.9453 19.2799 9.61263 18.6773C9.39299 18.2795 9.17562 17.6608 9.02081 17.0886C8.85608 16.4797 8.93416 15.3377 9.08405 14.362C9.17457 13.7728 9.44221 13.2681 9.67936 12.7867C10.101 11.9309 10.4196 11.4858 10.7159 11.1166C11.115 10.6192 11.5548 10.1724 11.9959 9.87719C12.3642 9.63068 12.7766 9.54656 13.2076 9.31318C13.6026 9.0993 13.9504 8.89736 14.4089 8.75201C14.8435 8.61429 15.3593 8.60578 15.8659 8.54177C16.8635 8.41571 18.355 8.51859 19.1904 8.73812C19.8117 8.90143 20.1844 9.28465 20.5519 9.54532C21.0196 9.87711 21.3786 10.1333 21.7477 10.4354C22.1878 10.7956 22.4671 11.1568 22.763 11.5077C23.045 11.842 23.3989 12.312 23.6864 12.8975C24.0559 13.6499 23.9849 14.1208 23.9909 17.7122C23.9928 18.8515 23.6473 19.3908 23.3569 19.9957C23.0807 20.5709 22.5281 21.1827 22.242 21.5201C21.9279 21.8907 21.4954 22.1791 20.9382 22.4921C20.2808 22.8614 18.8541 23.3833 17.5063 23.7147C16.9474 23.8522 16.4115 23.871 15.0889 23.8753C14.4492 23.8774 13.9727 23.5822 13.4685 23.3581C13.0721 23.1819 12.6854 22.9906 12.3331 22.7662C12.177 22.6335 12.0282 22.4793 11.8759 22.3257C11.7959 22.2545 11.7107 22.1969 11.5865 22.1223" stroke="black" stroke-width="2" stroke-linecap="round"/>
<path d="M16.8296 5.10082C16.8296 4.84493 16.8099 4.14709 16.7579 3.60626C16.6993 3.33211 16.6537 3.01881 16.6359 2.64378C16.6268 2.44408 16.6178 2.22536 16.6085 2" stroke="black" stroke-width="2" stroke-linecap="round"/>
<path d="M24.322 8.31198C24.3428 8.20211 24.5836 7.82082 25.0656 7.38081C25.5703 6.94693 25.8783 6.64229 26.2285 6.34342C26.3213 6.27052 26.4168 6.20028 26.5151 6.12791" stroke="black" stroke-width="2" stroke-linecap="round"/>
<path d="M27.3622 16.1675C27.5758 16.1675 28.1966 16.1386 28.7321 16.0847C28.9748 16.0639 29.2247 16.0457 29.6348 16.0278C29.9095 16.0188 30.3193 16.0098 30.7416 16.0005" stroke="black" stroke-width="2" stroke-linecap="round"/>
<path d="M24.0634 23.8689C24.1612 23.9491 24.4943 24.2852 24.9095 24.6964C25.3422 25.1043 25.7133 25.3468 26.0564 25.6012C26.1366 25.6664 26.2151 25.7325 26.4943 25.9387" stroke="black" stroke-width="2" stroke-linecap="round"/>
<path d="M16.4496 26.9482C16.4496 27.2023 16.4321 27.9689 16.3888 28.6574C16.3551 28.9311 16.3353 29.203 16.3307 29.5329C16.3262 29.7099 16.3174 29.9064 16.3084 30.1089" stroke="black" stroke-width="2" stroke-linecap="round"/>
<path d="M5.79102 26.213C5.90282 26.1217 6.3126 25.8026 6.71702 25.3823C7.08641 24.9977 7.5294 24.6449 7.89354 24.3824C7.97857 24.3174 8.06069 24.2545 8.22512 24.1467" stroke="black" stroke-width="2" stroke-linecap="round"/>
<path d="M2 15.8639C2.19413 15.8639 2.77517 15.8988 3.42868 15.9209C4.08671 15.9507 4.40974 15.988 4.61094 16.0247C4.71245 16.0414 4.81278 16.0542 4.93923 16.0674" stroke="black" stroke-width="2" stroke-linecap="round"/>
<path d="M6.14864 5.70729C6.19138 5.81341 6.42019 6.16516 6.88888 6.63212C7.37027 7.09266 7.90749 7.54848 8.21817 7.83238C8.2904 7.9056 8.36115 7.98126 8.43406 8.05922" stroke="black" stroke-width="2" stroke-linecap="round"/>
</svg>
