{
	"asset":{
		"generator":"Khronos glTF Blender I/O v4.5.49",
		"version":"2.0"
	},
	"scene":0,
	"scenes":[
		{
			"name":"Scene",
			"nodes":[
				3
			]
		}
	],
	"nodes":[
		{
			"mesh":0,
			"name":"oldDesktopCpu",
			"translation":[
				0,
				-0.10000013560056686,
				-0.007754084188491106
			]
		},
		{
			"mesh":1,
			"name":"oldDesktopKeyboard",
			"translation":[
				-0.09999996423721313,
				-0.10500025004148483,
				0.29224589467048645
			]
		},
		{
			"mesh":2,
			"name":"oldDesktopMouse",
			"translation":[
				0.24999983608722687,
				-0.10500027984380722,
				0.3058772385120392
			]
		},
		{
			"children":[
				0,
				1,
				2
			],
			"mesh":3,
			"name":"oldDesktop",
			"scale":[
				4.2809367179870605,
				4.28092622756958,
				4.28093147277832
			]
		}
	],
	"materials":[
		{
			"doubleSided":true,
			"name":"dullWhite",
			"pbrMetallicRoughness":{
				"baseColorFactor":[
					0.8549932241439819,
					0.8227859139442444,
					0.7304610013961792,
					1
				],
				"metallicFactor":0,
				"roughnessFactor":0.5
			}
		},
		{
			"doubleSided":true,
			"name":"black",
			"pbrMetallicRoughness":{
				"baseColorFactor":[
					0.0159962996840477,
					0.01599629409611225,
					0.0159962959587574,
					1
				],
				"metallicFactor":0
			}
		}
	],
	"meshes":[
		{
			"name":"Cube.013",
			"primitives":[
				{
					"attributes":{
						"POSITION":0,
						"NORMAL":1,
						"TEXCOORD_0":2
					},
					"indices":3,
					"material":0
				},
				{
					"attributes":{
						"POSITION":4,
						"NORMAL":5,
						"TEXCOORD_0":6
					},
					"indices":7,
					"material":1
				}
			]
		},
		{
			"name":"Cube.011",
			"primitives":[
				{
					"attributes":{
						"POSITION":8,
						"NORMAL":9,
						"TEXCOORD_0":10
					},
					"indices":11,
					"material":0
				},
				{
					"attributes":{
						"POSITION":12,
						"NORMAL":13,
						"TEXCOORD_0":14
					},
					"indices":15,
					"material":1
				}
			]
		},
		{
			"name":"Cube.012",
			"primitives":[
				{
					"attributes":{
						"POSITION":16,
						"NORMAL":17,
						"TEXCOORD_0":18
					},
					"indices":19,
					"material":0
				},
				{
					"attributes":{
						"POSITION":20,
						"NORMAL":21,
						"TEXCOORD_0":22
					},
					"indices":23,
					"material":1
				}
			]
		},
		{
			"name":"Cube.005",
			"primitives":[
				{
					"attributes":{
						"POSITION":24,
						"NORMAL":25,
						"TEXCOORD_0":26
					},
					"indices":27,
					"material":0
				},
				{
					"attributes":{
						"POSITION":28,
						"NORMAL":29,
						"TEXCOORD_0":30
					},
					"indices":31,
					"material":1
				}
			]
		}
	],
	"accessors":[
		{
			"bufferView":0,
			"componentType":5126,
			"count":120,
			"max":[
				0.17499980330467224,
				0.10000015795230865,
				0.1499999463558197
			],
			"min":[
				-0.17499980330467224,
				0,
				-0.15000003576278687
			],
			"type":"VEC3"
		},
		{
			"bufferView":1,
			"componentType":5126,
			"count":120,
			"type":"VEC3"
		},
		{
			"bufferView":2,
			"componentType":5126,
			"count":120,
			"type":"VEC2"
		},
		{
			"bufferView":3,
			"componentType":5123,
			"count":228,
			"type":"SCALAR"
		},
		{
			"bufferView":4,
			"componentType":5126,
			"count":40,
			"max":[
				0.15499979257583618,
				0.04250010475516319,
				0.14699995517730713
			],
			"min":[
				0.1349998265504837,
				0.03750009462237358,
				0.14499995112419128
			],
			"type":"VEC3"
		},
		{
			"bufferView":5,
			"componentType":5126,
			"count":40,
			"type":"VEC3"
		},
		{
			"bufferView":6,
			"componentType":5126,
			"count":40,
			"type":"VEC2"
		},
		{
			"bufferView":7,
			"componentType":5123,
			"count":60,
			"type":"SCALAR"
		},
		{
			"bufferView":8,
			"componentType":5126,
			"count":2212,
			"max":[
				0.2304997444152832,
				0.04000003635883331,
				0.07214847207069397
			],
			"min":[
				-0.23049971461296082,
				-1.955777406692505e-08,
				-0.07235151529312134
			],
			"type":"VEC3"
		},
		{
			"bufferView":9,
			"componentType":5126,
			"count":2212,
			"type":"VEC3"
		},
		{
			"bufferView":10,
			"componentType":5126,
			"count":2212,
			"type":"VEC2"
		},
		{
			"bufferView":11,
			"componentType":5123,
			"count":3324,
			"type":"SCALAR"
		},
		{
			"bufferView":12,
			"componentType":5126,
			"count":36,
			"max":[
				0.20549973845481873,
				0.02052401378750801,
				-0.0648515447974205
			],
			"min":[
				0.1954997479915619,
				0.01052399817854166,
				-0.07985152304172516
			],
			"type":"VEC3"
		},
		{
			"bufferView":13,
			"componentType":5126,
			"count":36,
			"type":"VEC3"
		},
		{
			"bufferView":14,
			"componentType":5126,
			"count":36,
			"type":"VEC2"
		},
		{
			"bufferView":15,
			"componentType":5123,
			"count":54,
			"type":"SCALAR"
		},
		{
			"bufferView":16,
			"componentType":5126,
			"count":156,
			"max":[
				0.031499773263931274,
				0.03600006178021431,
				0.045868366956710815
			],
			"min":[
				-0.031500160694122314,
				-6.289369025580527e-11,
				-0.07313153147697449
			],
			"type":"VEC3"
		},
		{
			"bufferView":17,
			"componentType":5126,
			"count":156,
			"type":"VEC3"
		},
		{
			"bufferView":18,
			"componentType":5126,
			"count":156,
			"type":"VEC2"
		},
		{
			"bufferView":19,
			"componentType":5123,
			"count":252,
			"type":"SCALAR"
		},
		{
			"bufferView":20,
			"componentType":5126,
			"count":36,
			"max":[
				0.004999816417694092,
				0.01335290726274252,
				-0.06313154101371765
			],
			"min":[
				-0.005000174045562744,
				0.003352890722453594,
				-0.0781315267086029
			],
			"type":"VEC3"
		},
		{
			"bufferView":21,
			"componentType":5126,
			"count":36,
			"type":"VEC3"
		},
		{
			"bufferView":22,
			"componentType":5126,
			"count":36,
			"type":"VEC2"
		},
		{
			"bufferView":23,
			"componentType":5123,
			"count":54,
			"type":"SCALAR"
		},
		{
			"bufferView":24,
			"componentType":5126,
			"count":104,
			"max":[
				0.14899978041648865,
				0.2820003628730774,
				0.09750011563301086
			],
			"min":[
				-0.14899984002113342,
				0.024684032425284386,
				-0.15249988436698914
			],
			"type":"VEC3"
		},
		{
			"bufferView":25,
			"componentType":5126,
			"count":104,
			"type":"VEC3"
		},
		{
			"bufferView":26,
			"componentType":5126,
			"count":104,
			"type":"VEC2"
		},
		{
			"bufferView":27,
			"componentType":5123,
			"count":210,
			"type":"SCALAR"
		},
		{
			"bufferView":28,
			"componentType":5126,
			"count":148,
			"max":[
				0.12403368949890137,
				0.2570003867149353,
				0.09750011563301086
			],
			"min":[
				-0.12403392791748047,
				0,
				-0.08749988675117493
			],
			"type":"VEC3"
		},
		{
			"bufferView":29,
			"componentType":5126,
			"count":148,
			"type":"VEC3"
		},
		{
			"bufferView":30,
			"componentType":5126,
			"count":148,
			"type":"VEC2"
		},
		{
			"bufferView":31,
			"componentType":5123,
			"count":234,
			"type":"SCALAR"
		}
	],
	"bufferViews":[
		{
			"buffer":0,
			"byteLength":1440,
			"byteOffset":0,
			"target":34962
		},
		{
			"buffer":0,
			"byteLength":1440,
			"byteOffset":1440,
			"target":34962
		},
		{
			"buffer":0,
			"byteLength":960,
			"byteOffset":2880,
			"target":34962
		},
		{
			"buffer":0,
			"byteLength":456,
			"byteOffset":3840,
			"target":34963
		},
		{
			"buffer":0,
			"byteLength":480,
			"byteOffset":4296,
			"target":34962
		},
		{
			"buffer":0,
			"byteLength":480,
			"byteOffset":4776,
			"target":34962
		},
		{
			"buffer":0,
			"byteLength":320,
			"byteOffset":5256,
			"target":34962
		},
		{
			"buffer":0,
			"byteLength":120,
			"byteOffset":5576,
			"target":34963
		},
		{
			"buffer":0,
			"byteLength":26544,
			"byteOffset":5696,
			"target":34962
		},
		{
			"buffer":0,
			"byteLength":26544,
			"byteOffset":32240,
			"target":34962
		},
		{
			"buffer":0,
			"byteLength":17696,
			"byteOffset":58784,
			"target":34962
		},
		{
			"buffer":0,
			"byteLength":6648,
			"byteOffset":76480,
			"target":34963
		},
		{
			"buffer":0,
			"byteLength":432,
			"byteOffset":83128,
			"target":34962
		},
		{
			"buffer":0,
			"byteLength":432,
			"byteOffset":83560,
			"target":34962
		},
		{
			"buffer":0,
			"byteLength":288,
			"byteOffset":83992,
			"target":34962
		},
		{
			"buffer":0,
			"byteLength":108,
			"byteOffset":84280,
			"target":34963
		},
		{
			"buffer":0,
			"byteLength":1872,
			"byteOffset":84388,
			"target":34962
		},
		{
			"buffer":0,
			"byteLength":1872,
			"byteOffset":86260,
			"target":34962
		},
		{
			"buffer":0,
			"byteLength":1248,
			"byteOffset":88132,
			"target":34962
		},
		{
			"buffer":0,
			"byteLength":504,
			"byteOffset":89380,
			"target":34963
		},
		{
			"buffer":0,
			"byteLength":432,
			"byteOffset":89884,
			"target":34962
		},
		{
			"buffer":0,
			"byteLength":432,
			"byteOffset":90316,
			"target":34962
		},
		{
			"buffer":0,
			"byteLength":288,
			"byteOffset":90748,
			"target":34962
		},
		{
			"buffer":0,
			"byteLength":108,
			"byteOffset":91036,
			"target":34963
		},
		{
			"buffer":0,
			"byteLength":1248,
			"byteOffset":91144,
			"target":34962
		},
		{
			"buffer":0,
			"byteLength":1248,
			"byteOffset":92392,
			"target":34962
		},
		{
			"buffer":0,
			"byteLength":832,
			"byteOffset":93640,
			"target":34962
		},
		{
			"buffer":0,
			"byteLength":420,
			"byteOffset":94472,
			"target":34963
		},
		{
			"buffer":0,
			"byteLength":1776,
			"byteOffset":94892,
			"target":34962
		},
		{
			"buffer":0,
			"byteLength":1776,
			"byteOffset":96668,
			"target":34962
		},
		{
			"buffer":0,
			"byteLength":1184,
			"byteOffset":98444,
			"target":34962
		},
		{
			"buffer":0,
			"byteLength":468,
			"byteOffset":99628,
			"target":34963
		}
	],
	"buffers":[
		{
			"byteLength":100096,
			"uri":"scene.bin"
		}
	]
}
