{
	"asset":{
		"generator":"Khronos glTF Blender I/O v4.5.49",
		"version":"2.0"
	},
	"scene":0,
	"scenes":[
		{
			"name":"Scene",
			"nodes":[
				0,
				1,
				2
			]
		}
	],
	"nodes":[
		{
			"mesh":0,
			"name":"Guitar",
			"rotation":[
				-0.7071068286895752,
				0.7071068286895752,
				0,
				3.090862321641907e-08
			],
			"translation":[
				2.2207705974578857,
				0,
				0
			]
		},
		{
			"mesh":1,
			"name":"Plane",
			"rotation":[
				-0.5,
				0.5,
				-0.5,
				0.5
			],
			"scale":[
				-1,
				-1,
				-1
			],
			"translation":[
				2.2207705974578857,
				0,
				0
			]
		},
		{
			"mesh":2,
			"name":"Strings",
			"rotation":[
				-0.7071068286895752,
				0.7071068286895752,
				0,
				3.090862321641907e-08
			],
			"scale":[
				0.012193949893116951,
				1.7478820085525513,
				0.012193949893116951
			],
			"translation":[
				2.2207705974578857,
				0,
				0
			]
		}
	],
	"materials":[
		{
			"doubleSided":true,
			"name":"Wood",
			"pbrMetallicRoughness":{
				"baseColorFactor":[
					0.8140406012535095,
					0.3169231712818146,
					0.12955507636070251,
					1
				],
				"metallicFactor":0,
				"roughnessFactor":0.30000001192092896
			}
		},
		{
			"doubleSided":true,
			"name":"Wood2",
			"pbrMetallicRoughness":{
				"baseColorFactor":[
					0.06680631637573242,
					0.018464967608451843,
					0.0047316597774624825,
					1
				],
				"metallicFactor":0,
				"roughnessFactor":0.30000001192092896
			}
		},
		{
			"doubleSided":true,
			"name":"Wood3",
			"pbrMetallicRoughness":{
				"baseColorFactor":[
					0.19015756249427795,
					0.062229033559560776,
					0.021790649741888046,
					1
				],
				"metallicFactor":0,
				"roughnessFactor":0.6000000238418579
			}
		},
		{
			"doubleSided":true,
			"name":"Inside",
			"pbrMetallicRoughness":{
				"baseColorFactor":[
					0.2078823447227478,
					0.10656590759754181,
					0.05053035542368889,
					1
				],
				"metallicFactor":0,
				"roughnessFactor":0.699999988079071
			}
		},
		{
			"doubleSided":true,
			"name":"Grif",
			"pbrMetallicRoughness":{
				"baseColorFactor":[
					0.03738370165228844,
					0.03738370165228844,
					0.03738370165228844,
					1
				],
				"metallicFactor":0,
				"roughnessFactor":0.699999988079071
			}
		},
		{
			"doubleSided":true,
			"name":"Details",
			"pbrMetallicRoughness":{
				"baseColorFactor":[
					0.800000011920929,
					0.800000011920929,
					0.800000011920929,
					1
				],
				"metallicFactor":0,
				"roughnessFactor":0.5
			}
		},
		{
			"doubleSided":true,
			"name":"Metal",
			"pbrMetallicRoughness":{
				"baseColorFactor":[
					0.28100892901420593,
					0.28100892901420593,
					0.28100892901420593,
					1
				],
				"metallicFactor":0.30000001192092896,
				"roughnessFactor":0.10000000149011612
			}
		},
		{
			"doubleSided":true,
			"name":"PlaneMaterial",
			"pbrMetallicRoughness":{
				"baseColorFactor":[
					0.044454220682382584,
					0.01582479663193226,
					0.004113863687962294,
					1
				],
				"metallicFactor":0,
				"roughnessFactor":0.10000000149011612
			}
		}
	],
	"meshes":[
		{
			"name":"Guitar.001",
			"primitives":[
				{
					"attributes":{
						"POSITION":0,
						"NORMAL":1,
						"TEXCOORD_0":2
					},
					"indices":3,
					"material":0
				},
				{
					"attributes":{
						"POSITION":4,
						"NORMAL":5,
						"TEXCOORD_0":6
					},
					"indices":7,
					"material":1
				},
				{
					"attributes":{
						"POSITION":8,
						"NORMAL":9,
						"TEXCOORD_0":10
					},
					"indices":11,
					"material":2
				},
				{
					"attributes":{
						"POSITION":12,
						"NORMAL":13,
						"TEXCOORD_0":14
					},
					"indices":15,
					"material":3
				},
				{
					"attributes":{
						"POSITION":16,
						"NORMAL":17,
						"TEXCOORD_0":18
					},
					"indices":19,
					"material":4
				},
				{
					"attributes":{
						"POSITION":20,
						"NORMAL":21,
						"TEXCOORD_0":22
					},
					"indices":23,
					"material":5
				},
				{
					"attributes":{
						"POSITION":24,
						"NORMAL":25,
						"TEXCOORD_0":26
					},
					"indices":27,
					"material":6
				}
			]
		},
		{
			"name":"Plane",
			"primitives":[
				{
					"attributes":{
						"POSITION":28,
						"NORMAL":29,
						"TEXCOORD_0":30
					},
					"indices":31,
					"material":7
				}
			]
		},
		{
			"name":"Cylinder.001",
			"primitives":[
				{
					"attributes":{
						"POSITION":32,
						"NORMAL":33,
						"TEXCOORD_0":34
					},
					"indices":35,
					"material":6
				}
			]
		}
	],
	"accessors":[
		{
			"bufferView":0,
			"componentType":5126,
			"count":152,
			"max":[
				1.0812757015228271,
				4.584280967712402,
				-0.3391638398170471
			],
			"min":[
				-1.0812757015228271,
				3.018183633685112e-06,
				-0.39997774362564087
			],
			"type":"VEC3"
		},
		{
			"bufferView":1,
			"componentType":5126,
			"count":152,
			"type":"VEC3"
		},
		{
			"bufferView":2,
			"componentType":5126,
			"count":152,
			"type":"VEC2"
		},
		{
			"bufferView":3,
			"componentType":5123,
			"count":468,
			"type":"SCALAR"
		},
		{
			"bufferView":4,
			"componentType":5126,
			"count":522,
			"max":[
				1.0812757015228271,
				5.337855339050293,
				0.3412872552871704
			],
			"min":[
				-1.0812757015228271,
				3.018183633685112e-06,
				-0.4175834655761719
			],
			"type":"VEC3"
		},
		{
			"bufferView":5,
			"componentType":5126,
			"count":522,
			"type":"VEC3"
		},
		{
			"bufferView":6,
			"componentType":5126,
			"count":522,
			"type":"VEC2"
		},
		{
			"bufferView":7,
			"componentType":5123,
			"count":1428,
			"type":"SCALAR"
		},
		{
			"bufferView":8,
			"componentType":5126,
			"count":180,
			"max":[
				0.14801478385925293,
				4.584171772003174,
				0.26379159092903137
			],
			"min":[
				-0.14801478385925293,
				2.6786882877349854,
				-0.3999776840209961
			],
			"type":"VEC3"
		},
		{
			"bufferView":9,
			"componentType":5126,
			"count":180,
			"type":"VEC3"
		},
		{
			"bufferView":10,
			"componentType":5126,
			"count":180,
			"type":"VEC2"
		},
		{
			"bufferView":11,
			"componentType":5123,
			"count":246,
			"type":"SCALAR"
		},
		{
			"bufferView":12,
			"componentType":5126,
			"count":163,
			"max":[
				0.8882410526275635,
				2.562208414077759,
				0.25394314527511597
			],
			"min":[
				-0.8882410526275635,
				0.1984548270702362,
				-0.3391638398170471
			],
			"type":"VEC3"
		},
		{
			"bufferView":13,
			"componentType":5126,
			"count":163,
			"type":"VEC3"
		},
		{
			"bufferView":14,
			"componentType":5126,
			"count":163,
			"type":"VEC2"
		},
		{
			"bufferView":15,
			"componentType":5123,
			"count":384,
			"type":"SCALAR"
		},
		{
			"bufferView":16,
			"componentType":5126,
			"count":94,
			"max":[
				0.15253622829914093,
				4.555732250213623,
				-0.3459472060203552
			],
			"min":[
				-0.15253622829914093,
				2.176811933517456,
				-0.41936472058296204
			],
			"type":"VEC3"
		},
		{
			"bufferView":17,
			"componentType":5126,
			"count":94,
			"type":"VEC3"
		},
		{
			"bufferView":18,
			"componentType":5126,
			"count":94,
			"type":"VEC2"
		},
		{
			"bufferView":19,
			"componentType":5123,
			"count":228,
			"type":"SCALAR"
		},
		{
			"bufferView":20,
			"componentType":5126,
			"count":105,
			"max":[
				0.16710996627807617,
				5.337855339050293,
				-0.10684571415185928
			],
			"min":[
				-0.16710996627807617,
				1.0733174085617065,
				-0.43409815430641174
			],
			"type":"VEC3"
		},
		{
			"bufferView":21,
			"componentType":5126,
			"count":105,
			"type":"VEC3"
		},
		{
			"bufferView":22,
			"componentType":5126,
			"count":105,
			"type":"VEC2"
		},
		{
			"bufferView":23,
			"componentType":5123,
			"count":198,
			"type":"SCALAR"
		},
		{
			"bufferView":24,
			"componentType":5126,
			"count":936,
			"max":[
				0.26308906078338623,
				5.232115268707275,
				-0.007143191993236542
			],
			"min":[
				-0.26308906078338623,
				4.696418285369873,
				-0.3250345289707184
			],
			"type":"VEC3"
		},
		{
			"bufferView":25,
			"componentType":5126,
			"count":936,
			"type":"VEC3"
		},
		{
			"bufferView":26,
			"componentType":5126,
			"count":936,
			"type":"VEC2"
		},
		{
			"bufferView":27,
			"componentType":5123,
			"count":1728,
			"type":"SCALAR"
		},
		{
			"bufferView":28,
			"componentType":5126,
			"count":118,
			"max":[
				0.6489680409431458,
				0.41051632165908813,
				2.2837724685668945
			],
			"min":[
				0.138502836227417,
				0.3755747079849243,
				1.2271779775619507
			],
			"type":"VEC3"
		},
		{
			"bufferView":29,
			"componentType":5126,
			"count":118,
			"type":"VEC3"
		},
		{
			"bufferView":30,
			"componentType":5126,
			"count":118,
			"type":"VEC2"
		},
		{
			"bufferView":31,
			"componentType":5123,
			"count":210,
			"type":"SCALAR"
		},
		{
			"bufferView":32,
			"componentType":5126,
			"count":684,
			"max":[
				10.736330032348633,
				2.9816975593566895,
				-15.597311019897461
			],
			"min":[
				-10.736330032348633,
				0.5783061385154724,
				-35.967769622802734
			],
			"type":"VEC3"
		},
		{
			"bufferView":33,
			"componentType":5126,
			"count":684,
			"type":"VEC3"
		},
		{
			"bufferView":34,
			"componentType":5126,
			"count":684,
			"type":"VEC2"
		},
		{
			"bufferView":35,
			"componentType":5123,
			"count":1224,
			"type":"SCALAR"
		}
	],
	"bufferViews":[
		{
			"buffer":0,
			"byteLength":1824,
			"byteOffset":0,
			"target":34962
		},
		{
			"buffer":0,
			"byteLength":1824,
			"byteOffset":1824,
			"target":34962
		},
		{
			"buffer":0,
			"byteLength":1216,
			"byteOffset":3648,
			"target":34962
		},
		{
			"buffer":0,
			"byteLength":936,
			"byteOffset":4864,
			"target":34963
		},
		{
			"buffer":0,
			"byteLength":6264,
			"byteOffset":5800,
			"target":34962
		},
		{
			"buffer":0,
			"byteLength":6264,
			"byteOffset":12064,
			"target":34962
		},
		{
			"buffer":0,
			"byteLength":4176,
			"byteOffset":18328,
			"target":34962
		},
		{
			"buffer":0,
			"byteLength":2856,
			"byteOffset":22504,
			"target":34963
		},
		{
			"buffer":0,
			"byteLength":2160,
			"byteOffset":25360,
			"target":34962
		},
		{
			"buffer":0,
			"byteLength":2160,
			"byteOffset":27520,
			"target":34962
		},
		{
			"buffer":0,
			"byteLength":1440,
			"byteOffset":29680,
			"target":34962
		},
		{
			"buffer":0,
			"byteLength":492,
			"byteOffset":31120,
			"target":34963
		},
		{
			"buffer":0,
			"byteLength":1956,
			"byteOffset":31612,
			"target":34962
		},
		{
			"buffer":0,
			"byteLength":1956,
			"byteOffset":33568,
			"target":34962
		},
		{
			"buffer":0,
			"byteLength":1304,
			"byteOffset":35524,
			"target":34962
		},
		{
			"buffer":0,
			"byteLength":768,
			"byteOffset":36828,
			"target":34963
		},
		{
			"buffer":0,
			"byteLength":1128,
			"byteOffset":37596,
			"target":34962
		},
		{
			"buffer":0,
			"byteLength":1128,
			"byteOffset":38724,
			"target":34962
		},
		{
			"buffer":0,
			"byteLength":752,
			"byteOffset":39852,
			"target":34962
		},
		{
			"buffer":0,
			"byteLength":456,
			"byteOffset":40604,
			"target":34963
		},
		{
			"buffer":0,
			"byteLength":1260,
			"byteOffset":41060,
			"target":34962
		},
		{
			"buffer":0,
			"byteLength":1260,
			"byteOffset":42320,
			"target":34962
		},
		{
			"buffer":0,
			"byteLength":840,
			"byteOffset":43580,
			"target":34962
		},
		{
			"buffer":0,
			"byteLength":396,
			"byteOffset":44420,
			"target":34963
		},
		{
			"buffer":0,
			"byteLength":11232,
			"byteOffset":44816,
			"target":34962
		},
		{
			"buffer":0,
			"byteLength":11232,
			"byteOffset":56048,
			"target":34962
		},
		{
			"buffer":0,
			"byteLength":7488,
			"byteOffset":67280,
			"target":34962
		},
		{
			"buffer":0,
			"byteLength":3456,
			"byteOffset":74768,
			"target":34963
		},
		{
			"buffer":0,
			"byteLength":1416,
			"byteOffset":78224,
			"target":34962
		},
		{
			"buffer":0,
			"byteLength":1416,
			"byteOffset":79640,
			"target":34962
		},
		{
			"buffer":0,
			"byteLength":944,
			"byteOffset":81056,
			"target":34962
		},
		{
			"buffer":0,
			"byteLength":420,
			"byteOffset":82000,
			"target":34963
		},
		{
			"buffer":0,
			"byteLength":8208,
			"byteOffset":82420,
			"target":34962
		},
		{
			"buffer":0,
			"byteLength":8208,
			"byteOffset":90628,
			"target":34962
		},
		{
			"buffer":0,
			"byteLength":5472,
			"byteOffset":98836,
			"target":34962
		},
		{
			"buffer":0,
			"byteLength":2448,
			"byteOffset":104308,
			"target":34963
		}
	],
	"buffers":[
		{
			"byteLength":106756,
			"uri":"scene.bin"
		}
	]
}
