{
	"asset":{
		"generator":"Khronos glTF Blender I/O v4.5.49",
		"version":"2.0"
	},
	"scene":0,
	"scenes":[
		{
			"name":"Scene",
			"nodes":[
				0
			]
		}
	],
	"nodes":[
		{
			"mesh":0,
			"name":"book",
			"rotation":[
				0.7071068286895752,
				0,
				0,
				0.7071068286895752
			],
			"translation":[
				0,
				0.6509806513786316,
				0
			]
		}
	],
	"materials":[
		{
			"doubleSided":true,
			"name":"texture",
			"pbrMetallicRoughness":{
				"baseColorTexture":{
					"index":0
				},
				"metallicFactor":0,
				"roughnessFactor":0.5
			}
		}
	],
	"meshes":[
		{
			"name":"Plane.009",
			"primitives":[
				{
					"attributes":{
						"POSITION":0,
						"NORMAL":1,
						"TEXCOORD_0":2
					},
					"indices":3,
					"material":0
				}
			]
		}
	],
	"textures":[
		{
			"sampler":0,
			"source":0
		}
	],
	"images":[
		{
			"mimeType":"image/png",
			"name":"tex",
			"uri":"textures/tex.png"
		}
	],
	"accessors":[
		{
			"bufferView":0,
			"componentType":5126,
			"count":1666,
			"max":[
				0.925296425819397,
				0.015309512615203857,
				1.640106439590454
			],
			"min":[
				-1.1854782104492188,
				-0.37732037901878357,
				-0.9544974565505981
			],
			"type":"VEC3"
		},
		{
			"bufferView":1,
			"componentType":5126,
			"count":1666,
			"type":"VEC3"
		},
		{
			"bufferView":2,
			"componentType":5126,
			"count":1666,
			"type":"VEC2"
		},
		{
			"bufferView":3,
			"componentType":5123,
			"count":4446,
			"type":"SCALAR"
		}
	],
	"bufferViews":[
		{
			"buffer":0,
			"byteLength":19992,
			"byteOffset":0,
			"target":34962
		},
		{
			"buffer":0,
			"byteLength":19992,
			"byteOffset":19992,
			"target":34962
		},
		{
			"buffer":0,
			"byteLength":13328,
			"byteOffset":39984,
			"target":34962
		},
		{
			"buffer":0,
			"byteLength":8892,
			"byteOffset":53312,
			"target":34963
		}
	],
	"samplers":[
		{
			"magFilter":9729,
			"minFilter":9987
		}
	],
	"buffers":[
		{
			"byteLength":62204,
			"uri":"scene.bin"
		}
	]
}
